<?xml version="1.0" encoding="UTF-8"?>
<svg xmlns="http://www.w3.org/2000/svg" viewBox="0 0 1387.022373 354.089029">
  <!-- 定義金色漸層 -->
  <defs>
    <linearGradient id="goldGradient" gradientUnits="userSpaceOnUse" x1="1970" y1="0" x2="15840" y2="0">
      <stop offset="0%" stop-color="#F7E27A"/>
      <stop offset="60%" stop-color="#EFBF04"/>
      <stop offset="100%" stop-color="#C99700"/>
    </linearGradient>
  </defs>

  <g transform="translate(-197.000000,619.000000) scale(0.100000,-0.100000)" fill="url(#goldGradient)" stroke="none">
    <path d="M1970 6151 c0 -141 102 -300 245 -381 123 -69 0 -64 1625 -70 1655
-6 1501 2 1619 -84 292 -215 171 -656 -195 -716 -36 -6 -613 -10 -1472 -10
-1548 0 -1456 3 -1577 -58 -64 -32 -165 -134 -193 -195 -53 -114 -52 -93 -50
-1072 l3 -910 270 0 270 0 5 841 c6 931 0 860 65 897 15 9 379 13 1390 17
1296 5 1374 7 1435 24 296 85 532 274 644 518 227 490 -61 1051 -620 1211 -79
22 -79 22 -1771 25 -1693 2 -1693 2 -1693 -37z"/>
    <path d="M6870 5970 c0 -219 0 -219 343 -222 381 -3 395 -6 502 -81 41 -29
304 -313 825 -887 289 -318 498 -548 610 -670 54 -58 221 -240 372 -405 151
-165 353 -385 449 -490 95 -104 225 -246 288 -315 254 -279 181 -250 622 -250
l389 0 0 1770 0 1770 -275 0 -275 0 0 -1490 c0 -1462 0 -1489 -19 -1500 -11
-5 -26 -10 -35 -10 -12 0 -473 492 -731 780 -33 37 -159 175 -280 306 -121
132 -382 417 -580 634 -198 216 -468 511 -600 654 -132 143 -270 293 -306 333
-129 143 -269 234 -423 273 -73 18 -113 20 -478 20 -398 0 -398 0 -398 -220z"/>
    <path d="M12497.5,2651.7L12152.2,2655.4L12040.5,2662.1L12014.8,2669.6L11983.2,2690.5L11973.0,2708.6L11965.8,2740.6L11959.2,2812.9L11954.8,2928.3L11950.6,3367.9L11950.0,6188.0L11955.5,6190.0L12498.0,6188.3L12497.5,2651.7Z"/>
    <path d="M12698.0,3156.0L13838.9,4236.1L13868.8,4261.9L13891.4,4270.7L13907.9,4267.2L13922.7,4259.0L13979.8,4211.2L14968.0,3269.1L15134.0,3115.5L15167.6,3089.1L15188.3,3079.4L15236.5,3082.7L15259.6,3095.6L15275.3,3116.2L15281.4,3147.7L15288.0,3372.4L15290.0,6185.0L15292.5,6190.0L15840.0,6189.0L15836.6,3728.2L15832.7,2948.5L15829.4,2807.9L15824.1,2739.7L15817.6,2718.1L15791.2,2685.3L15772.7,2672.3L15750.0,2664.0L15673.5,2654.3L15521.3,2650.9L15192.7,2651.8L15105.0,2655.8L15034.8,2664.9L14975.8,2679.7L14919.0,2702.7L14871.0,2729.1L14820.4,2763.4L14759.4,2811.2L14690.4,2871.0L14025.8,3501.0L13906.3,3610.6L13894.5,3606.9L13871.9,3591.2L13786.0,3517.0L13178.7,2944.6L13079.8,2855.1L13007.4,2794.5L12923.3,2734.2L12851.2,2695.6L12779.4,2671.2L12698.0,2657.5L12698.0,3156.0Z"/>
    <path d="M6872 4148 l3 -1493 273 -3 272 -2 0 1495 0 1495 -275 0 -275 0 2
-1492z"/>
  </g>
</svg>