<?xml version="1.0" encoding="UTF-8"?>
<svg xmlns="http://www.w3.org/2000/svg" viewBox="0 0 900.903954 134.830979" width="901" height="135">
  <rect width="100%" height="100%" fill="#000000"/>
  <g fill="#ffffff" stroke="none" fill-rule="evenodd">
    <path d="M 41.00395400000002,4.930978999999979 C 50.70395400000001,13.830978999999957 54.903954,16.730978999999934 59.20395400000001,17.330978999999957 C 61.50395400000002,17.63097899999991 101.00395400000002,18.03097899999989 146.903954,18.230978999999934 C 228.30395399999998,18.53097899999989 230.50395400000002,18.53097899999989 235.00395400000002,20.53097899999989 C 247.00395400000002,25.830978999999957 248.00395400000002,40.730978999999934 236.80395399999998,47.33097899999996 C 233.50395400000002,49.33097899999996 231.10395400000004,49.33097899999996 134.403954,49.83097899999996 C 35.403954,50.43097899999998 35.403954,50.43097899999998 29.50395400000002,52.63097899999991 C 16.903954,57.33097899999996 8.003954000000022,65.13097899999991 3.1039540000000443,75.63097899999991 C 0.4039539999999988,81.33097899999996 0.4039539999999988,81.53097899999989 0.10395400000004429,108.03097899999995 C -0.09604600000000119,122.83097899999996 0.10395400000004429,134.83097899999996 0.5039540000000216,134.83097899999996 C 0.9039539999999988,134.83097899999996 5.20395400000001,132.53097899999995 10.103954000000044,129.6309789999999 C 18.903954,124.43097899999992 18.903954,124.43097899999992 18.903954,106.83097899999996 C 18.903954,97.23097899999993 19.403954,87.63097899999991 20.00395400000002,85.53097899999989 C 21.403954,80.23097899999993 27.00395400000002,74.43097899999998 33.70395400000001,71.13097899999991 C 39.403954,68.33097899999996 39.403954,68.33097899999996 137.903954,67.83097899999996 C 203.903954,67.43097899999998 237.403954,66.93097899999998 239.403954,66.13097899999991 C 271.20395400000007,54.93097899999998 273.903954,18.63097899999991 244.00395400000002,4.430978999999866 C 237.403954,1.3309789999999566 237.403954,1.3309789999999566 137.00395400000002,1.0309789999998884 C 36.50395400000002,0.8309789999999566 36.50395400000002,0.8309789999999566 41.00395400000002,4.930978999999979"/>
    <path d="M 334.70395400000007,2.230978999999934 C 326.70395400000007,4.430978999999866 319.20395400000007,9.830978999999957 302.003954,25.93097899999998 C 285.403954,41.43097899999998 285.403954,41.43097899999998 285.10395400000004,54.730978999999934 C 284.8039540000001,68.03097899999989 284.8039540000001,68.03097899999989 287.10395400000004,65.53097899999989 C 297.20395400000007,54.43097899999998 331.60395400000004,23.63097899999991 336.60395400000004,21.13097899999991 C 342.403954,18.330978999999957 342.403954,18.330978999999957 412.903954,18.03097899999989 C 489.403954,17.730978999999934 497.3039540000001,18.13097899999991 504.60395400000004,22.330978999999957 C 507.003954,23.830978999999957 520.8039540000001,36.13097899999991 535.2039540000001,49.730978999999934 C 576.8039540000001,89.13097899999991 572.003954,85.83097899999996 587.8039540000001,85.83097899999996 C 595.2039540000001,85.83097899999996 601.003954,85.73097899999993 600.8039540000001,85.53097899999989 C 599.3039540000001,84.43097899999998 559.3039540000001,46.43097899999998 545.403954,32.83097899999996 C 521.7039540000001,9.730978999999934 516.503954,5.530978999999888 507.503954,2.5309789999998884 C 501.003954,0.3309789999999566 342.8039540000001,0.0309789999998884 334.70395400000007,2.230978999999934"/>
    <path d="M721.69,31.93L716.31,31.93L714.06,32.12L711.86,32.47L709.69,33.00L707.52,33.72L705.32,34.65L703.07,35.80L700.73,37.19L698.59,38.61L696.35,40.22L691.10,44.41L685.93,48.89L676.72,57.25L672.32,60.97L668.58,63.78L666.89,64.88L665.28,65.81L663.46,66.68L661.68,67.37L659.88,67.88L658.03,68.25L655.80,68.54L653.81,68.65L651.90,68.61L650.00,68.39L648.09,67.96L646.35,67.39L644.53,66.63L642.58,65.66L640.49,64.46L637.87,62.79L632.14,58.70L623.49,51.95L578.30,15.66L563.91,3.93L562.14,2.67L561.04,2.12L559.81,1.71L558.33,1.41L556.06,1.14L540.55,0.28L537.30,0.03L537.18,0.09L537.10,0.53L537.10,0.77L537.27,1.04L538.55,2.42L541.32,5.06L545.34,8.72L557.03,19.04L572.89,32.71L590.90,47.98L607.25,61.63L619.83,71.89L627.85,78.12L630.35,79.80L633.60,81.60L636.98,83.12L640.48,84.37L644.06,85.35L647.70,86.05L651.39,86.46L655.10,86.60L658.07,86.51L660.66,86.27L663.22,85.90L665.77,85.38L668.63,84.62L671.09,83.80L673.69,82.74L675.64,81.75L678.16,80.25L680.99,78.36L684.06,76.13L686.99,73.87L692.41,69.37L699.13,63.34L702.90,60.07L705.92,57.61L708.68,55.56L711.52,53.73L714.13,52.41L715.50,51.88L716.57,51.57L717.87,51.31L719.00,51.21L720.13,51.31L721.17,51.51L722.23,51.80L723.59,52.29L726.18,53.56L728.99,55.33L731.72,57.33L734.71,59.74L738.43,62.95L746.28,69.96L749.68,72.80L752.98,75.41L756.72,78.15L760.11,80.42L763.04,82.12L765.53,83.26L769.37,84.62L771.51,85.21L773.68,85.69L777.71,86.31L779.93,86.51L782.15,86.59L786.24,86.49L788.45,86.29L790.66,85.99L792.85,85.59L795.03,85.08L798.93,83.90L801.70,82.84L804.07,81.76L806.37,80.55L808.76,79.10L811.10,77.41L814.69,74.65L824.99,66.36L836.98,56.46L850.71,44.94L865.11,32.71L878.22,21.43L888.74,12.22L896.12,5.58L900.12,1.73L900.83,0.90L900.90,0.53L900.82,0.09L900.70,0.03L897.45,0.28L881.94,1.14L879.67,1.41L878.19,1.71L876.96,2.12L875.86,2.67L874.09,3.93L859.70,15.66L814.51,51.95L805.86,58.70L800.13,62.79L797.51,64.46L795.42,65.66L793.47,66.63L791.65,67.39L789.91,67.96L788.00,68.39L786.10,68.61L784.19,68.65L782.20,68.54L779.97,68.25L778.12,67.88L776.32,67.37L774.54,66.68L772.72,65.81L771.11,64.88L769.42,63.78L765.68,60.97L761.28,57.25L752.07,48.89L746.90,44.41L741.65,40.22L739.41,38.61L737.27,37.19L734.93,35.80L732.68,34.65L730.48,33.72L728.31,33.00L726.14,32.47L723.94,32.12L721.69,31.93Z"/>
  </g>
</svg>